<mxfile host="Electron" agent="Mozilla/5.0 (Windows NT 10.0; Win64; x64) AppleWebKit/537.36 (KHTML, like Gecko) draw.io/26.0.16 Chrome/132.0.6834.196 Electron/34.2.0 Safari/537.36" version="26.0.16">
  <diagram name="architecture" id="vfD3lr8TJ8JF09UrLSWe">
    <mxGraphModel dx="1434" dy="836" grid="1" gridSize="10" guides="1" tooltips="1" connect="1" arrows="1" fold="1" page="1" pageScale="1" pageWidth="1654" pageHeight="2336" math="0" shadow="0">
      <root>
        <mxCell id="0" />
        <mxCell id="1" parent="0" />
        <mxCell id="uKYGijWLlyskTUIZ84KK-27" value="" style="group" parent="1" vertex="1" connectable="0">
          <mxGeometry x="150" y="80" width="847" height="304" as="geometry" />
        </mxCell>
        <mxCell id="CMFroQrEn63EqGm07mEr-1" value="&lt;p style=&quot;margin:0px;margin-top:6px;text-align:center;&quot;&gt;&lt;b&gt;DocumentIndex&lt;/b&gt;&lt;/p&gt;&lt;hr size=&quot;1&quot; style=&quot;border-style:solid;&quot;&gt;&lt;p style=&quot;margin:0px;margin-left:8px;&quot;&gt;&lt;br&gt;&lt;/p&gt;" style="align=left;overflow=fill;html=1;dropTarget=0;whiteSpace=wrap;" parent="uKYGijWLlyskTUIZ84KK-27" vertex="1">
          <mxGeometry x="160" y="174" width="120" height="60" as="geometry" />
        </mxCell>
        <mxCell id="CMFroQrEn63EqGm07mEr-2" value="" style="shape=component;jettyWidth=8;jettyHeight=4;" parent="CMFroQrEn63EqGm07mEr-1" vertex="1">
          <mxGeometry x="1" width="20" height="20" relative="1" as="geometry">
            <mxPoint x="-24" y="4" as="offset" />
          </mxGeometry>
        </mxCell>
        <mxCell id="CMFroQrEn63EqGm07mEr-6" value="" style="endArrow=classic;html=1;rounded=0;entryX=0;entryY=0.5;entryDx=0;entryDy=0;exitX=0.938;exitY=0.429;exitDx=0;exitDy=0;exitPerimeter=0;" parent="uKYGijWLlyskTUIZ84KK-27" source="CMFroQrEn63EqGm07mEr-3" target="CMFroQrEn63EqGm07mEr-1" edge="1">
          <mxGeometry width="50" height="50" relative="1" as="geometry">
            <mxPoint y="260" as="sourcePoint" />
            <mxPoint x="50" y="210" as="targetPoint" />
          </mxGeometry>
        </mxCell>
        <mxCell id="CMFroQrEn63EqGm07mEr-7" value="" style="endArrow=classic;html=1;rounded=0;exitX=1;exitY=0.5;exitDx=0;exitDy=0;entryX=0.02;entryY=0.392;entryDx=0;entryDy=0;entryPerimeter=0;" parent="uKYGijWLlyskTUIZ84KK-27" source="CMFroQrEn63EqGm07mEr-1" target="CMFroQrEn63EqGm07mEr-4" edge="1">
          <mxGeometry width="50" height="50" relative="1" as="geometry">
            <mxPoint x="300" y="270" as="sourcePoint" />
            <mxPoint x="350" y="220" as="targetPoint" />
          </mxGeometry>
        </mxCell>
        <mxCell id="uKYGijWLlyskTUIZ84KK-5" value="" style="endArrow=classic;html=1;rounded=0;exitX=1;exitY=0.25;exitDx=0;exitDy=0;dashed=1;" parent="uKYGijWLlyskTUIZ84KK-27" source="CMFroQrEn63EqGm07mEr-1" target="uKYGijWLlyskTUIZ84KK-3" edge="1">
          <mxGeometry width="50" height="50" relative="1" as="geometry">
            <mxPoint x="320" y="70.00379912663757" as="sourcePoint" />
            <mxPoint x="230" y="136.03" as="targetPoint" />
          </mxGeometry>
        </mxCell>
        <mxCell id="uKYGijWLlyskTUIZ84KK-9" value="" style="endArrow=classic;html=1;rounded=0;entryX=0;entryY=0.5;entryDx=0;entryDy=0;exitX=0.955;exitY=0.531;exitDx=0;exitDy=0;exitPerimeter=0;" parent="uKYGijWLlyskTUIZ84KK-27" source="CMFroQrEn63EqGm07mEr-4" target="uKYGijWLlyskTUIZ84KK-22" edge="1">
          <mxGeometry width="50" height="50" relative="1" as="geometry">
            <mxPoint x="490" y="280" as="sourcePoint" />
            <mxPoint x="470" y="150" as="targetPoint" />
          </mxGeometry>
        </mxCell>
        <mxCell id="uKYGijWLlyskTUIZ84KK-12" value="" style="endArrow=classic;html=1;rounded=0;exitX=0.593;exitY=0.467;exitDx=0;exitDy=0;exitPerimeter=0;" parent="uKYGijWLlyskTUIZ84KK-27" source="uKYGijWLlyskTUIZ84KK-10" target="uKYGijWLlyskTUIZ84KK-7" edge="1">
          <mxGeometry width="50" height="50" relative="1" as="geometry">
            <mxPoint x="487" y="270" as="sourcePoint" />
            <mxPoint x="537" y="220" as="targetPoint" />
          </mxGeometry>
        </mxCell>
        <mxCell id="uKYGijWLlyskTUIZ84KK-15" value="" style="group" parent="uKYGijWLlyskTUIZ84KK-27" vertex="1" connectable="0">
          <mxGeometry x="727" y="210" width="107" height="94" as="geometry" />
        </mxCell>
        <mxCell id="uKYGijWLlyskTUIZ84KK-6" value="Ollama" style="image;aspect=fixed;perimeter=ellipsePerimeter;html=1;align=center;shadow=0;dashed=0;fontColor=#4277BB;labelBackgroundColor=default;fontSize=12;spacingTop=3;image=img/lib/ibm/applications/runtime_services.svg;" parent="uKYGijWLlyskTUIZ84KK-15" vertex="1">
          <mxGeometry y="34" width="60" height="60" as="geometry" />
        </mxCell>
        <mxCell id="uKYGijWLlyskTUIZ84KK-7" value="" style="sketch=0;outlineConnect=0;fontColor=#232F3E;gradientColor=none;fillColor=#01A88D;strokeColor=none;dashed=0;verticalLabelPosition=bottom;verticalAlign=top;align=center;html=1;fontSize=12;fontStyle=0;aspect=fixed;pointerEvents=1;shape=mxgraph.aws4.sagemaker_model;" parent="uKYGijWLlyskTUIZ84KK-15" vertex="1">
          <mxGeometry x="13" width="34" height="34" as="geometry" />
        </mxCell>
        <mxCell id="uKYGijWLlyskTUIZ84KK-8" value="llama3" style="text;html=1;align=center;verticalAlign=middle;whiteSpace=wrap;rounded=0;" parent="uKYGijWLlyskTUIZ84KK-15" vertex="1">
          <mxGeometry x="47" y="2" width="60" height="30" as="geometry" />
        </mxCell>
        <mxCell id="uKYGijWLlyskTUIZ84KK-16" value="" style="group" parent="uKYGijWLlyskTUIZ84KK-27" vertex="1" connectable="0">
          <mxGeometry x="740" y="142" width="107" height="30" as="geometry" />
        </mxCell>
        <mxCell id="uKYGijWLlyskTUIZ84KK-10" value="" style="html=1;verticalLabelPosition=bottom;align=center;labelBackgroundColor=#ffffff;verticalAlign=top;strokeWidth=2;strokeColor=#0080F0;shadow=0;dashed=0;shape=mxgraph.ios7.icons.chat;" parent="uKYGijWLlyskTUIZ84KK-16" vertex="1">
          <mxGeometry y="6" width="30" height="18" as="geometry" />
        </mxCell>
        <mxCell id="uKYGijWLlyskTUIZ84KK-11" value="chat engine" style="text;html=1;align=center;verticalAlign=middle;whiteSpace=wrap;rounded=0;" parent="uKYGijWLlyskTUIZ84KK-16" vertex="1">
          <mxGeometry x="34" width="73" height="30" as="geometry" />
        </mxCell>
        <mxCell id="uKYGijWLlyskTUIZ84KK-17" value="" style="group" parent="uKYGijWLlyskTUIZ84KK-27" vertex="1" connectable="0">
          <mxGeometry x="370" y="80" width="60" height="74" as="geometry" />
        </mxCell>
        <mxCell id="uKYGijWLlyskTUIZ84KK-3" value="" style="image;sketch=0;aspect=fixed;html=1;points=[];align=center;fontSize=12;image=img/lib/mscae/Resource_Graph_Explorer.svg;" parent="uKYGijWLlyskTUIZ84KK-17" vertex="1">
          <mxGeometry width="49" height="50" as="geometry" />
        </mxCell>
        <mxCell id="uKYGijWLlyskTUIZ84KK-4" value="embeddings" style="text;html=1;align=center;verticalAlign=middle;whiteSpace=wrap;rounded=0;" parent="uKYGijWLlyskTUIZ84KK-17" vertex="1">
          <mxGeometry y="44" width="60" height="30" as="geometry" />
        </mxCell>
        <mxCell id="uKYGijWLlyskTUIZ84KK-18" value="" style="group" parent="uKYGijWLlyskTUIZ84KK-27" vertex="1" connectable="0">
          <mxGeometry y="220" width="60" height="72.66000000000003" as="geometry" />
        </mxCell>
        <mxCell id="CMFroQrEn63EqGm07mEr-3" value="" style="image;aspect=fixed;html=1;points=[];align=center;fontSize=12;image=img/lib/azure2/general/Files.svg;" parent="uKYGijWLlyskTUIZ84KK-18" vertex="1">
          <mxGeometry x="10" width="39" height="42.66" as="geometry" />
        </mxCell>
        <mxCell id="uKYGijWLlyskTUIZ84KK-2" value="documents" style="text;html=1;align=center;verticalAlign=middle;whiteSpace=wrap;rounded=0;" parent="uKYGijWLlyskTUIZ84KK-18" vertex="1">
          <mxGeometry y="42.660000000000025" width="60" height="30" as="geometry" />
        </mxCell>
        <mxCell id="uKYGijWLlyskTUIZ84KK-19" value="" style="group" parent="uKYGijWLlyskTUIZ84KK-27" vertex="1" connectable="0">
          <mxGeometry x="380" y="174" width="60" height="110" as="geometry" />
        </mxCell>
        <mxCell id="CMFroQrEn63EqGm07mEr-4" value="" style="sketch=0;html=1;aspect=fixed;strokeColor=none;shadow=0;fillColor=#3B8DF1;verticalAlign=top;labelPosition=center;verticalLabelPosition=bottom;shape=mxgraph.gcp2.database_3" parent="uKYGijWLlyskTUIZ84KK-19" vertex="1">
          <mxGeometry width="49" height="70" as="geometry" />
        </mxCell>
        <mxCell id="uKYGijWLlyskTUIZ84KK-1" value="index of document embeddings" style="text;html=1;align=center;verticalAlign=middle;whiteSpace=wrap;rounded=0;" parent="uKYGijWLlyskTUIZ84KK-19" vertex="1">
          <mxGeometry y="80" width="60" height="30" as="geometry" />
        </mxCell>
        <mxCell id="uKYGijWLlyskTUIZ84KK-21" value="&lt;font style=&quot;color: light-dark(rgb(36, 113, 214), rgb(237, 237, 237)); font-size: 14px;&quot;&gt;a simple Chat Bot&lt;/font&gt;" style="text;html=1;align=center;verticalAlign=middle;whiteSpace=wrap;rounded=0;" parent="uKYGijWLlyskTUIZ84KK-27" vertex="1">
          <mxGeometry x="335" width="130" height="30" as="geometry" />
        </mxCell>
        <mxCell id="uKYGijWLlyskTUIZ84KK-22" value="&lt;p style=&quot;margin:0px;margin-top:6px;text-align:center;&quot;&gt;&lt;b&gt;Chat&lt;/b&gt;&lt;/p&gt;" style="align=left;overflow=fill;html=1;dropTarget=0;whiteSpace=wrap;" parent="uKYGijWLlyskTUIZ84KK-27" vertex="1">
          <mxGeometry x="520" y="174" width="120" height="60" as="geometry" />
        </mxCell>
        <mxCell id="uKYGijWLlyskTUIZ84KK-23" value="" style="shape=component;jettyWidth=8;jettyHeight=4;" parent="uKYGijWLlyskTUIZ84KK-22" vertex="1">
          <mxGeometry x="1" width="20" height="20" relative="1" as="geometry">
            <mxPoint x="-24" y="4" as="offset" />
          </mxGeometry>
        </mxCell>
        <mxCell id="uKYGijWLlyskTUIZ84KK-24" value="" style="endArrow=classic;html=1;rounded=0;exitX=1;exitY=0.5;exitDx=0;exitDy=0;entryX=0.627;entryY=0.689;entryDx=0;entryDy=0;entryPerimeter=0;" parent="uKYGijWLlyskTUIZ84KK-27" source="uKYGijWLlyskTUIZ84KK-22" target="uKYGijWLlyskTUIZ84KK-10" edge="1">
          <mxGeometry width="50" height="50" relative="1" as="geometry">
            <mxPoint x="450" y="250" as="sourcePoint" />
            <mxPoint x="500" y="200" as="targetPoint" />
          </mxGeometry>
        </mxCell>
        <mxCell id="uKYGijWLlyskTUIZ84KK-26" value="" style="endArrow=classic;html=1;rounded=0;exitX=0;exitY=0;exitDx=0;exitDy=0;entryX=0.963;entryY=0.88;entryDx=0;entryDy=0;entryPerimeter=0;dashed=1;" parent="uKYGijWLlyskTUIZ84KK-27" source="uKYGijWLlyskTUIZ84KK-22" target="uKYGijWLlyskTUIZ84KK-3" edge="1">
          <mxGeometry width="50" height="50" relative="1" as="geometry">
            <mxPoint x="420" y="280" as="sourcePoint" />
            <mxPoint x="470" y="230" as="targetPoint" />
          </mxGeometry>
        </mxCell>
        <mxCell id="uKYGijWLlyskTUIZ84KK-29" value="&lt;p style=&quot;margin:0px;margin-top:6px;text-align:center;&quot;&gt;&lt;b&gt;DocumentIndex&lt;/b&gt;&lt;/p&gt;&lt;hr size=&quot;1&quot; style=&quot;border-style:solid;&quot;&gt;&lt;p style=&quot;margin:0px;margin-left:8px;&quot;&gt;&lt;br&gt;&lt;/p&gt;" style="align=left;overflow=fill;html=1;dropTarget=0;whiteSpace=wrap;" parent="1" vertex="1">
          <mxGeometry x="380" y="834" width="120" height="60" as="geometry" />
        </mxCell>
        <mxCell id="uKYGijWLlyskTUIZ84KK-30" value="" style="shape=component;jettyWidth=8;jettyHeight=4;" parent="uKYGijWLlyskTUIZ84KK-29" vertex="1">
          <mxGeometry x="1" width="20" height="20" relative="1" as="geometry">
            <mxPoint x="-24" y="4" as="offset" />
          </mxGeometry>
        </mxCell>
        <mxCell id="uKYGijWLlyskTUIZ84KK-31" value="" style="endArrow=classic;html=1;rounded=0;entryX=0;entryY=0.5;entryDx=0;entryDy=0;exitX=0.938;exitY=0.429;exitDx=0;exitDy=0;exitPerimeter=0;" parent="1" source="uKYGijWLlyskTUIZ84KK-47" target="uKYGijWLlyskTUIZ84KK-29" edge="1">
          <mxGeometry width="50" height="50" relative="1" as="geometry">
            <mxPoint x="290" y="920" as="sourcePoint" />
            <mxPoint x="340" y="870" as="targetPoint" />
          </mxGeometry>
        </mxCell>
        <mxCell id="uKYGijWLlyskTUIZ84KK-32" value="" style="endArrow=classic;html=1;rounded=0;exitX=1;exitY=0.5;exitDx=0;exitDy=0;entryX=0.02;entryY=0.392;entryDx=0;entryDy=0;entryPerimeter=0;" parent="1" source="uKYGijWLlyskTUIZ84KK-29" target="uKYGijWLlyskTUIZ84KK-50" edge="1">
          <mxGeometry width="50" height="50" relative="1" as="geometry">
            <mxPoint x="590" y="930" as="sourcePoint" />
            <mxPoint x="640" y="880" as="targetPoint" />
          </mxGeometry>
        </mxCell>
        <mxCell id="uKYGijWLlyskTUIZ84KK-33" value="" style="endArrow=classic;html=1;rounded=0;exitX=1;exitY=0.25;exitDx=0;exitDy=0;dashed=1;" parent="1" source="uKYGijWLlyskTUIZ84KK-29" target="uKYGijWLlyskTUIZ84KK-44" edge="1">
          <mxGeometry width="50" height="50" relative="1" as="geometry">
            <mxPoint x="610" y="730.0037991266375" as="sourcePoint" />
            <mxPoint x="520" y="796.03" as="targetPoint" />
          </mxGeometry>
        </mxCell>
        <mxCell id="uKYGijWLlyskTUIZ84KK-34" value="" style="endArrow=classic;html=1;rounded=0;entryX=0;entryY=0.5;entryDx=0;entryDy=0;exitX=0.955;exitY=0.531;exitDx=0;exitDy=0;exitPerimeter=0;" parent="1" source="uKYGijWLlyskTUIZ84KK-50" target="uKYGijWLlyskTUIZ84KK-53" edge="1">
          <mxGeometry width="50" height="50" relative="1" as="geometry">
            <mxPoint x="780" y="940" as="sourcePoint" />
            <mxPoint x="760" y="810" as="targetPoint" />
          </mxGeometry>
        </mxCell>
        <mxCell id="uKYGijWLlyskTUIZ84KK-35" value="" style="endArrow=classic;html=1;rounded=0;exitX=0.593;exitY=0.467;exitDx=0;exitDy=0;exitPerimeter=0;" parent="1" source="uKYGijWLlyskTUIZ84KK-41" target="uKYGijWLlyskTUIZ84KK-38" edge="1">
          <mxGeometry width="50" height="50" relative="1" as="geometry">
            <mxPoint x="777" y="930" as="sourcePoint" />
            <mxPoint x="827" y="880" as="targetPoint" />
          </mxGeometry>
        </mxCell>
        <mxCell id="uKYGijWLlyskTUIZ84KK-36" value="" style="group" parent="1" vertex="1" connectable="0">
          <mxGeometry x="1017" y="870" width="107" height="94" as="geometry" />
        </mxCell>
        <mxCell id="uKYGijWLlyskTUIZ84KK-37" value="Ollama" style="image;aspect=fixed;perimeter=ellipsePerimeter;html=1;align=center;shadow=0;dashed=0;fontColor=#4277BB;labelBackgroundColor=default;fontSize=12;spacingTop=3;image=img/lib/ibm/applications/runtime_services.svg;" parent="uKYGijWLlyskTUIZ84KK-36" vertex="1">
          <mxGeometry y="34" width="60" height="60" as="geometry" />
        </mxCell>
        <mxCell id="uKYGijWLlyskTUIZ84KK-38" value="" style="sketch=0;outlineConnect=0;fontColor=#232F3E;gradientColor=none;fillColor=#01A88D;strokeColor=none;dashed=0;verticalLabelPosition=bottom;verticalAlign=top;align=center;html=1;fontSize=12;fontStyle=0;aspect=fixed;pointerEvents=1;shape=mxgraph.aws4.sagemaker_model;" parent="uKYGijWLlyskTUIZ84KK-36" vertex="1">
          <mxGeometry x="13" width="34" height="34" as="geometry" />
        </mxCell>
        <mxCell id="uKYGijWLlyskTUIZ84KK-39" value="llama3" style="text;html=1;align=center;verticalAlign=middle;whiteSpace=wrap;rounded=0;" parent="uKYGijWLlyskTUIZ84KK-36" vertex="1">
          <mxGeometry x="47" y="2" width="60" height="30" as="geometry" />
        </mxCell>
        <mxCell id="uKYGijWLlyskTUIZ84KK-40" value="" style="group" parent="1" vertex="1" connectable="0">
          <mxGeometry x="1030" y="802" width="107" height="30" as="geometry" />
        </mxCell>
        <mxCell id="uKYGijWLlyskTUIZ84KK-41" value="" style="html=1;verticalLabelPosition=bottom;align=center;labelBackgroundColor=#ffffff;verticalAlign=top;strokeWidth=2;strokeColor=#0080F0;shadow=0;dashed=0;shape=mxgraph.ios7.icons.chat;" parent="uKYGijWLlyskTUIZ84KK-40" vertex="1">
          <mxGeometry y="6" width="30" height="18" as="geometry" />
        </mxCell>
        <mxCell id="uKYGijWLlyskTUIZ84KK-42" value="chat engine" style="text;html=1;align=center;verticalAlign=middle;whiteSpace=wrap;rounded=0;" parent="uKYGijWLlyskTUIZ84KK-40" vertex="1">
          <mxGeometry x="34" width="73" height="30" as="geometry" />
        </mxCell>
        <mxCell id="uKYGijWLlyskTUIZ84KK-43" value="" style="group" parent="1" vertex="1" connectable="0">
          <mxGeometry x="660" y="740" width="60" height="74" as="geometry" />
        </mxCell>
        <mxCell id="uKYGijWLlyskTUIZ84KK-44" value="" style="image;sketch=0;aspect=fixed;html=1;points=[];align=center;fontSize=12;image=img/lib/mscae/Resource_Graph_Explorer.svg;" parent="uKYGijWLlyskTUIZ84KK-43" vertex="1">
          <mxGeometry width="49" height="50" as="geometry" />
        </mxCell>
        <mxCell id="uKYGijWLlyskTUIZ84KK-45" value="embeddings" style="text;html=1;align=center;verticalAlign=middle;whiteSpace=wrap;rounded=0;" parent="uKYGijWLlyskTUIZ84KK-43" vertex="1">
          <mxGeometry y="44" width="60" height="30" as="geometry" />
        </mxCell>
        <mxCell id="uKYGijWLlyskTUIZ84KK-46" value="" style="group" parent="1" vertex="1" connectable="0">
          <mxGeometry x="120" y="944" width="60" height="72.66000000000003" as="geometry" />
        </mxCell>
        <mxCell id="uKYGijWLlyskTUIZ84KK-47" value="" style="image;aspect=fixed;html=1;points=[];align=center;fontSize=12;image=img/lib/azure2/general/Files.svg;" parent="uKYGijWLlyskTUIZ84KK-46" vertex="1">
          <mxGeometry x="10" width="39" height="42.66" as="geometry" />
        </mxCell>
        <mxCell id="uKYGijWLlyskTUIZ84KK-48" value="documents" style="text;html=1;align=center;verticalAlign=middle;whiteSpace=wrap;rounded=0;" parent="uKYGijWLlyskTUIZ84KK-46" vertex="1">
          <mxGeometry y="42.660000000000025" width="60" height="30" as="geometry" />
        </mxCell>
        <mxCell id="uKYGijWLlyskTUIZ84KK-49" value="" style="group" parent="1" vertex="1" connectable="0">
          <mxGeometry x="670" y="834" width="60" height="110" as="geometry" />
        </mxCell>
        <mxCell id="uKYGijWLlyskTUIZ84KK-50" value="" style="sketch=0;html=1;aspect=fixed;strokeColor=none;shadow=0;fillColor=#3B8DF1;verticalAlign=top;labelPosition=center;verticalLabelPosition=bottom;shape=mxgraph.gcp2.database_3" parent="uKYGijWLlyskTUIZ84KK-49" vertex="1">
          <mxGeometry width="49" height="70" as="geometry" />
        </mxCell>
        <mxCell id="uKYGijWLlyskTUIZ84KK-51" value="index of document embeddings" style="text;html=1;align=center;verticalAlign=middle;whiteSpace=wrap;rounded=0;" parent="uKYGijWLlyskTUIZ84KK-49" vertex="1">
          <mxGeometry y="80" width="60" height="30" as="geometry" />
        </mxCell>
        <mxCell id="uKYGijWLlyskTUIZ84KK-53" value="&lt;p style=&quot;margin:0px;margin-top:6px;text-align:center;&quot;&gt;&lt;b&gt;Chat&lt;/b&gt;&lt;/p&gt;" style="align=left;overflow=fill;html=1;dropTarget=0;whiteSpace=wrap;" parent="1" vertex="1">
          <mxGeometry x="810" y="834" width="120" height="60" as="geometry" />
        </mxCell>
        <mxCell id="uKYGijWLlyskTUIZ84KK-54" value="" style="shape=component;jettyWidth=8;jettyHeight=4;" parent="uKYGijWLlyskTUIZ84KK-53" vertex="1">
          <mxGeometry x="1" width="20" height="20" relative="1" as="geometry">
            <mxPoint x="-24" y="4" as="offset" />
          </mxGeometry>
        </mxCell>
        <mxCell id="uKYGijWLlyskTUIZ84KK-55" value="" style="endArrow=classic;html=1;rounded=0;exitX=1;exitY=0.5;exitDx=0;exitDy=0;entryX=0.627;entryY=0.689;entryDx=0;entryDy=0;entryPerimeter=0;" parent="1" source="uKYGijWLlyskTUIZ84KK-53" target="uKYGijWLlyskTUIZ84KK-41" edge="1">
          <mxGeometry width="50" height="50" relative="1" as="geometry">
            <mxPoint x="740" y="910" as="sourcePoint" />
            <mxPoint x="790" y="860" as="targetPoint" />
          </mxGeometry>
        </mxCell>
        <mxCell id="uKYGijWLlyskTUIZ84KK-56" value="" style="endArrow=classic;html=1;rounded=0;exitX=0;exitY=0;exitDx=0;exitDy=0;entryX=0.963;entryY=0.88;entryDx=0;entryDy=0;entryPerimeter=0;dashed=1;" parent="1" source="uKYGijWLlyskTUIZ84KK-53" target="uKYGijWLlyskTUIZ84KK-44" edge="1">
          <mxGeometry width="50" height="50" relative="1" as="geometry">
            <mxPoint x="710" y="940" as="sourcePoint" />
            <mxPoint x="760" y="890" as="targetPoint" />
          </mxGeometry>
        </mxCell>
        <mxCell id="uKYGijWLlyskTUIZ84KK-66" value="Table of Contents" style="swimlane;startSize=30;horizontal=0;childLayout=treeLayout;horizontalTree=1;sortEdges=1;resizable=0;containerType=tree;fontSize=8;" parent="1" vertex="1">
          <mxGeometry x="340" y="1168" width="250" height="120" as="geometry" />
        </mxCell>
        <mxCell id="uKYGijWLlyskTUIZ84KK-67" value="&lt;font style=&quot;font-size: 8px;&quot;&gt;Simple Machines&lt;/font&gt;" style="whiteSpace=wrap;html=1;" parent="uKYGijWLlyskTUIZ84KK-66" vertex="1">
          <mxGeometry x="50" y="52.5" width="70" height="15" as="geometry" />
        </mxCell>
        <mxCell id="uKYGijWLlyskTUIZ84KK-68" value="&lt;font style=&quot;font-size: 8px;&quot;&gt;6 Types of SM&lt;/font&gt;" style="whiteSpace=wrap;html=1;" parent="uKYGijWLlyskTUIZ84KK-66" vertex="1">
          <mxGeometry x="170" y="20" width="60" height="20" as="geometry" />
        </mxCell>
        <mxCell id="uKYGijWLlyskTUIZ84KK-69" value="" style="edgeStyle=elbowEdgeStyle;elbow=horizontal;html=1;rounded=1;curved=0;sourcePerimeterSpacing=0;targetPerimeterSpacing=0;startSize=6;endSize=6;" parent="uKYGijWLlyskTUIZ84KK-66" source="uKYGijWLlyskTUIZ84KK-67" target="uKYGijWLlyskTUIZ84KK-68" edge="1">
          <mxGeometry relative="1" as="geometry" />
        </mxCell>
        <mxCell id="uKYGijWLlyskTUIZ84KK-70" value="&lt;font style=&quot;font-size: 8px;&quot;&gt;Inclined Plane&lt;/font&gt;" style="whiteSpace=wrap;html=1;" parent="uKYGijWLlyskTUIZ84KK-66" vertex="1">
          <mxGeometry x="170" y="80" width="60" height="20" as="geometry" />
        </mxCell>
        <mxCell id="uKYGijWLlyskTUIZ84KK-71" value="" style="edgeStyle=elbowEdgeStyle;elbow=horizontal;html=1;rounded=1;curved=0;sourcePerimeterSpacing=0;targetPerimeterSpacing=0;startSize=6;endSize=6;" parent="uKYGijWLlyskTUIZ84KK-66" source="uKYGijWLlyskTUIZ84KK-67" target="uKYGijWLlyskTUIZ84KK-70" edge="1">
          <mxGeometry relative="1" as="geometry" />
        </mxCell>
        <mxCell id="uKYGijWLlyskTUIZ84KK-75" value="" style="endArrow=classic;html=1;rounded=0;exitX=1;exitY=0.75;exitDx=0;exitDy=0;entryX=-0.005;entryY=0.423;entryDx=0;entryDy=0;entryPerimeter=0;" parent="1" source="uKYGijWLlyskTUIZ84KK-48" target="uKYGijWLlyskTUIZ84KK-66" edge="1">
          <mxGeometry width="50" height="50" relative="1" as="geometry">
            <mxPoint x="430" y="1130" as="sourcePoint" />
            <mxPoint x="480" y="1080" as="targetPoint" />
          </mxGeometry>
        </mxCell>
        <mxCell id="uKYGijWLlyskTUIZ84KK-81" value="readSyllabus.&lt;div&gt;parse_table_of_contents&lt;/div&gt;" style="text;html=1;align=center;verticalAlign=middle;whiteSpace=wrap;rounded=0;rotation=45;" parent="1" vertex="1">
          <mxGeometry x="150" y="1110" width="170" height="30" as="geometry" />
        </mxCell>
        <mxCell id="uKYGijWLlyskTUIZ84KK-83" value="" style="endArrow=classic;html=1;rounded=0;exitX=1;exitY=0.5;exitDx=0;exitDy=0;" parent="1" source="uKYGijWLlyskTUIZ84KK-66" target="uKYGijWLlyskTUIZ84KK-79" edge="1">
          <mxGeometry width="50" height="50" relative="1" as="geometry">
            <mxPoint x="600" y="1130" as="sourcePoint" />
            <mxPoint x="650" y="1080" as="targetPoint" />
          </mxGeometry>
        </mxCell>
        <mxCell id="uKYGijWLlyskTUIZ84KK-87" value="clean_file" style="text;html=1;align=center;verticalAlign=middle;whiteSpace=wrap;rounded=0;rotation=30;" parent="1" vertex="1">
          <mxGeometry x="150" y="1040" width="60" height="30" as="geometry" />
        </mxCell>
        <mxCell id="uKYGijWLlyskTUIZ84KK-89" value="" style="group" parent="1" vertex="1" connectable="0">
          <mxGeometry x="690" y="1148" width="210" height="160" as="geometry" />
        </mxCell>
        <mxCell id="uKYGijWLlyskTUIZ84KK-79" value="&lt;p style=&quot;margin:0px;margin-top:6px;text-align:center;&quot;&gt;&lt;b&gt;nouns, compound nouns, hierarchy with order&lt;/b&gt;&lt;/p&gt;" style="align=left;overflow=fill;html=1;dropTarget=0;whiteSpace=wrap;" parent="uKYGijWLlyskTUIZ84KK-89" vertex="1">
          <mxGeometry width="197.64705882352942" height="60" as="geometry" />
        </mxCell>
        <mxCell id="uKYGijWLlyskTUIZ84KK-80" value="" style="shape=component;jettyWidth=8;jettyHeight=4;" parent="uKYGijWLlyskTUIZ84KK-79" vertex="1">
          <mxGeometry x="1" width="20" height="20" relative="1" as="geometry">
            <mxPoint x="-24" y="4" as="offset" />
          </mxGeometry>
        </mxCell>
        <mxCell id="uKYGijWLlyskTUIZ84KK-88" value="" style="group" parent="uKYGijWLlyskTUIZ84KK-89" vertex="1" connectable="0">
          <mxGeometry y="56" width="210.00000000000003" height="104" as="geometry" />
        </mxCell>
        <mxCell id="uKYGijWLlyskTUIZ84KK-84" value="inflect - plural to singular" style="text;html=1;align=center;verticalAlign=middle;whiteSpace=wrap;rounded=0;" parent="uKYGijWLlyskTUIZ84KK-88" vertex="1">
          <mxGeometry width="185.2941176470588" height="30" as="geometry" />
        </mxCell>
        <mxCell id="uKYGijWLlyskTUIZ84KK-85" value="nltk - stopwords, get_noun_phrases, get_compound_nouns" style="text;html=1;align=center;verticalAlign=middle;whiteSpace=wrap;rounded=0;" parent="uKYGijWLlyskTUIZ84KK-88" vertex="1">
          <mxGeometry y="35" width="185.2941176470588" height="30" as="geometry" />
        </mxCell>
        <mxCell id="uKYGijWLlyskTUIZ84KK-86" value="CountVectorizer - get_topics" style="text;html=1;align=center;verticalAlign=middle;whiteSpace=wrap;rounded=0;" parent="uKYGijWLlyskTUIZ84KK-88" vertex="1">
          <mxGeometry y="74" width="210.00000000000003" height="30" as="geometry" />
        </mxCell>
        <mxCell id="uKYGijWLlyskTUIZ84KK-102" value="" style="group" parent="1" vertex="1" connectable="0">
          <mxGeometry x="100" y="1500" width="458" height="90" as="geometry" />
        </mxCell>
        <mxCell id="uKYGijWLlyskTUIZ84KK-90" value="" style="group" parent="uKYGijWLlyskTUIZ84KK-102" vertex="1" connectable="0">
          <mxGeometry width="60" height="72.66000000000003" as="geometry" />
        </mxCell>
        <mxCell id="uKYGijWLlyskTUIZ84KK-91" value="" style="image;aspect=fixed;html=1;points=[];align=center;fontSize=12;image=img/lib/azure2/general/Files.svg;" parent="uKYGijWLlyskTUIZ84KK-90" vertex="1">
          <mxGeometry x="10" width="39" height="42.66" as="geometry" />
        </mxCell>
        <mxCell id="uKYGijWLlyskTUIZ84KK-92" value="documents" style="text;html=1;align=center;verticalAlign=middle;whiteSpace=wrap;rounded=0;" parent="uKYGijWLlyskTUIZ84KK-90" vertex="1">
          <mxGeometry y="42.660000000000025" width="60" height="30" as="geometry" />
        </mxCell>
        <mxCell id="uKYGijWLlyskTUIZ84KK-95" value="&lt;p style=&quot;margin:0px;margin-top:6px;text-align:center;&quot;&gt;&lt;b&gt;topic modeling&lt;/b&gt;&lt;/p&gt;" style="align=left;overflow=fill;html=1;dropTarget=0;whiteSpace=wrap;" parent="uKYGijWLlyskTUIZ84KK-102" vertex="1">
          <mxGeometry x="150" width="150" height="60" as="geometry" />
        </mxCell>
        <mxCell id="uKYGijWLlyskTUIZ84KK-96" value="" style="shape=component;jettyWidth=8;jettyHeight=4;" parent="uKYGijWLlyskTUIZ84KK-95" vertex="1">
          <mxGeometry x="1" width="20" height="20" relative="1" as="geometry">
            <mxPoint x="-24" y="4" as="offset" />
          </mxGeometry>
        </mxCell>
        <mxCell id="uKYGijWLlyskTUIZ84KK-99" value="" style="group" parent="uKYGijWLlyskTUIZ84KK-102" vertex="1" connectable="0">
          <mxGeometry x="382" width="76" height="90" as="geometry" />
        </mxCell>
        <mxCell id="uKYGijWLlyskTUIZ84KK-97" value="" style="sketch=0;html=1;aspect=fixed;strokeColor=none;shadow=0;fillColor=#3B8DF1;verticalAlign=top;labelPosition=center;verticalLabelPosition=bottom;shape=mxgraph.gcp2.folders" parent="uKYGijWLlyskTUIZ84KK-99" vertex="1">
          <mxGeometry x="8" width="60" height="51" as="geometry" />
        </mxCell>
        <mxCell id="uKYGijWLlyskTUIZ84KK-98" value="documents in hierarchical topic folders" style="text;html=1;align=center;verticalAlign=middle;whiteSpace=wrap;rounded=0;" parent="uKYGijWLlyskTUIZ84KK-99" vertex="1">
          <mxGeometry y="60" width="76" height="30" as="geometry" />
        </mxCell>
        <mxCell id="uKYGijWLlyskTUIZ84KK-100" value="" style="endArrow=classic;html=1;rounded=0;entryX=0;entryY=0.5;entryDx=0;entryDy=0;" parent="uKYGijWLlyskTUIZ84KK-102" source="uKYGijWLlyskTUIZ84KK-91" target="uKYGijWLlyskTUIZ84KK-95" edge="1">
          <mxGeometry width="50" height="50" relative="1" as="geometry">
            <mxPoint x="70" y="110" as="sourcePoint" />
            <mxPoint x="120" y="60" as="targetPoint" />
          </mxGeometry>
        </mxCell>
        <mxCell id="uKYGijWLlyskTUIZ84KK-101" value="" style="endArrow=classic;html=1;rounded=0;exitX=1;exitY=0.5;exitDx=0;exitDy=0;entryX=0.027;entryY=0.604;entryDx=0;entryDy=0;entryPerimeter=0;" parent="uKYGijWLlyskTUIZ84KK-102" source="uKYGijWLlyskTUIZ84KK-95" target="uKYGijWLlyskTUIZ84KK-97" edge="1">
          <mxGeometry width="50" height="50" relative="1" as="geometry">
            <mxPoint x="310" y="-10" as="sourcePoint" />
            <mxPoint x="360" y="-60" as="targetPoint" />
          </mxGeometry>
        </mxCell>
      </root>
    </mxGraphModel>
  </diagram>
</mxfile>
